<mxfile host="app.diagrams.net" modified="2022-10-08T14:43:21.178Z" agent="5.0 (Macintosh; Intel Mac OS X 10_15_7) AppleWebKit/605.1.15 (KHTML, like Gecko) Version/16.0 Safari/605.1.15" etag="C-XHafetVL7p2-4HYeht" version="20.4.0" type="github">
  <diagram id="CIYdKKqNAJBwTVAFqt9w" name="Page-1">
    <mxGraphModel dx="1420" dy="800" grid="1" gridSize="10" guides="1" tooltips="1" connect="1" arrows="1" fold="1" page="1" pageScale="1" pageWidth="850" pageHeight="1100" math="0" shadow="0">
      <root>
        <mxCell id="0" />
        <mxCell id="1" parent="0" />
        <mxCell id="0QP-IHk7IyoN1cNLL2Y5-2" value="DB" style="aspect=fixed;html=1;points=[];align=center;image;fontSize=12;image=img/lib/azure2/databases/Azure_Database_PostgreSQL_Server.svg;" parent="1" vertex="1">
          <mxGeometry x="695" y="198.5" width="48" height="64" as="geometry" />
        </mxCell>
        <mxCell id="0QP-IHk7IyoN1cNLL2Y5-3" value="Application Insights" style="aspect=fixed;html=1;points=[];align=center;image;fontSize=12;image=img/lib/azure2/devops/Application_Insights.svg;" parent="1" vertex="1">
          <mxGeometry x="660.08" y="430" width="34.92" height="50" as="geometry" />
        </mxCell>
        <mxCell id="0QP-IHk7IyoN1cNLL2Y5-5" value="LogAnalytics (Central)" style="sketch=0;aspect=fixed;html=1;points=[];align=center;image;fontSize=12;image=img/lib/mscae/Log_Analytics_Workspaces.svg;" parent="1" vertex="1">
          <mxGeometry x="533.08" y="430" width="50" height="50" as="geometry" />
        </mxCell>
        <mxCell id="0QP-IHk7IyoN1cNLL2Y5-9" value="" style="aspect=fixed;html=1;points=[];align=center;image;fontSize=12;image=img/lib/azure2/general/Browser.svg;" parent="1" vertex="1">
          <mxGeometry x="80" y="186" width="65" height="52" as="geometry" />
        </mxCell>
        <mxCell id="0QP-IHk7IyoN1cNLL2Y5-10" value="" style="aspect=fixed;html=1;points=[];align=center;image;fontSize=12;image=img/lib/azure2/general/Browser.svg;" parent="1" vertex="1">
          <mxGeometry x="90" y="196" width="65" height="52" as="geometry" />
        </mxCell>
        <mxCell id="0QP-IHk7IyoN1cNLL2Y5-11" value="" style="aspect=fixed;html=1;points=[];align=center;image;fontSize=12;image=img/lib/azure2/general/Browser.svg;" parent="1" vertex="1">
          <mxGeometry x="100" y="206" width="65" height="52" as="geometry" />
        </mxCell>
        <mxCell id="0QP-IHk7IyoN1cNLL2Y5-12" value="" style="aspect=fixed;html=1;points=[];align=center;image;fontSize=12;image=img/lib/azure2/general/Browser.svg;" parent="1" vertex="1">
          <mxGeometry x="110" y="216" width="65" height="52" as="geometry" />
        </mxCell>
        <mxCell id="0QP-IHk7IyoN1cNLL2Y5-13" value="" style="endArrow=classic;html=1;rounded=0;exitX=0.995;exitY=0.276;exitDx=0;exitDy=0;exitPerimeter=0;entryX=-0.005;entryY=0.502;entryDx=0;entryDy=0;entryPerimeter=0;" parent="1" source="0QP-IHk7IyoN1cNLL2Y5-12" target="ekxaGM8s8DSmjiYnGcUn-2" edge="1">
          <mxGeometry width="50" height="50" relative="1" as="geometry">
            <mxPoint x="180" y="240" as="sourcePoint" />
            <mxPoint x="400" y="230" as="targetPoint" />
          </mxGeometry>
        </mxCell>
        <mxCell id="0QP-IHk7IyoN1cNLL2Y5-14" value="" style="endArrow=classic;html=1;rounded=0;exitX=1;exitY=0.502;exitDx=0;exitDy=0;exitPerimeter=0;entryX=0;entryY=0.5;entryDx=0;entryDy=0;entryPerimeter=0;startArrow=none;" parent="1" source="ekxaGM8s8DSmjiYnGcUn-2" target="0QP-IHk7IyoN1cNLL2Y5-2" edge="1">
          <mxGeometry width="50" height="50" relative="1" as="geometry">
            <mxPoint x="480" y="233" as="sourcePoint" />
            <mxPoint x="690" y="230" as="targetPoint" />
          </mxGeometry>
        </mxCell>
        <mxCell id="0QP-IHk7IyoN1cNLL2Y5-15" value="" style="shape=actor;whiteSpace=wrap;html=1;" parent="1" vertex="1">
          <mxGeometry x="87" y="217" width="40" height="60" as="geometry" />
        </mxCell>
        <mxCell id="0QP-IHk7IyoN1cNLL2Y5-16" value="" style="shape=actor;whiteSpace=wrap;html=1;" parent="1" vertex="1">
          <mxGeometry x="97" y="227" width="40" height="60" as="geometry" />
        </mxCell>
        <mxCell id="0QP-IHk7IyoN1cNLL2Y5-17" value="" style="shape=actor;whiteSpace=wrap;html=1;" parent="1" vertex="1">
          <mxGeometry x="107" y="237" width="40" height="60" as="geometry" />
        </mxCell>
        <mxCell id="0QP-IHk7IyoN1cNLL2Y5-18" value="" style="shape=actor;whiteSpace=wrap;html=1;" parent="1" vertex="1">
          <mxGeometry x="117" y="247" width="40" height="60" as="geometry" />
        </mxCell>
        <mxCell id="0QP-IHk7IyoN1cNLL2Y5-19" value="" style="shape=actor;whiteSpace=wrap;html=1;" parent="1" vertex="1">
          <mxGeometry x="127" y="257" width="40" height="60" as="geometry" />
        </mxCell>
        <mxCell id="0QP-IHk7IyoN1cNLL2Y5-22" value="Browser users" style="text;html=1;align=center;verticalAlign=middle;resizable=0;points=[];autosize=1;strokeColor=none;fillColor=none;" parent="1" vertex="1">
          <mxGeometry x="84" y="310" width="100" height="30" as="geometry" />
        </mxCell>
        <mxCell id="0QP-IHk7IyoN1cNLL2Y5-26" value="" style="endArrow=none;dashed=1;html=1;dashPattern=1 3;strokeWidth=2;rounded=0;" parent="1" edge="1">
          <mxGeometry width="50" height="50" relative="1" as="geometry">
            <mxPoint x="280" y="22" as="sourcePoint" />
            <mxPoint x="280" y="20" as="targetPoint" />
            <Array as="points">
              <mxPoint x="770" y="20" />
              <mxPoint x="770" y="520" />
              <mxPoint x="280" y="520" />
            </Array>
          </mxGeometry>
        </mxCell>
        <mxCell id="0QP-IHk7IyoN1cNLL2Y5-30" value="Azure" style="text;strokeColor=none;fillColor=none;html=1;fontSize=24;fontStyle=1;verticalAlign=middle;align=center;" parent="1" vertex="1">
          <mxGeometry x="670" y="30" width="90" height="40" as="geometry" />
        </mxCell>
        <mxCell id="gKN0slglhCB6e-M4ENdB-1" value="Simple deployment" style="text;strokeColor=none;fillColor=none;html=1;fontSize=24;fontStyle=1;verticalAlign=middle;align=center;" parent="1" vertex="1">
          <mxGeometry x="18" y="20" width="252" height="40" as="geometry" />
        </mxCell>
        <mxCell id="SbZcLWqu1GxGIv8-tLfZ-1" value="GitHub Repo" style="aspect=fixed;html=1;points=[];align=center;image;fontSize=12;image=img/lib/azure2/general/Branch.svg;" parent="1" vertex="1">
          <mxGeometry x="683" y="561" width="72" height="72" as="geometry" />
        </mxCell>
        <mxCell id="Wzz_lYJs2OhC6GSg2xJx-1" value="(No usage of Managed Identities)" style="text;html=1;strokeColor=none;fillColor=none;align=center;verticalAlign=middle;whiteSpace=wrap;rounded=0;fontSize=12;" parent="1" vertex="1">
          <mxGeometry x="33.5" y="52" width="216.5" height="28" as="geometry" />
        </mxCell>
        <mxCell id="ekxaGM8s8DSmjiYnGcUn-2" value="Container Instance&lt;br&gt;WEB + API" style="aspect=fixed;html=1;points=[];align=center;image;fontSize=12;image=img/lib/azure2/containers/Container_Instances.svg;" parent="1" vertex="1">
          <mxGeometry x="400" y="196" width="64" height="69" as="geometry" />
        </mxCell>
        <mxCell id="ekxaGM8s8DSmjiYnGcUn-3" value="Container Registry" style="aspect=fixed;html=1;points=[];align=center;image;fontSize=12;image=img/lib/azure2/containers/Container_Registries.svg;" parent="1" vertex="1">
          <mxGeometry x="398" y="340" width="68" height="61" as="geometry" />
        </mxCell>
        <mxCell id="ekxaGM8s8DSmjiYnGcUn-4" value="" style="endArrow=oval;html=1;rounded=0;entryX=0.5;entryY=-0.005;entryDx=0;entryDy=0;entryPerimeter=0;exitX=0.5;exitY=0.995;exitDx=0;exitDy=0;exitPerimeter=0;startArrow=oval;startFill=0;endFill=0;" parent="1" source="ekxaGM8s8DSmjiYnGcUn-2" target="ekxaGM8s8DSmjiYnGcUn-3" edge="1">
          <mxGeometry width="50" height="50" relative="1" as="geometry">
            <mxPoint x="400" y="280" as="sourcePoint" />
            <mxPoint x="450" y="230" as="targetPoint" />
          </mxGeometry>
        </mxCell>
        <mxCell id="0QP-IHk7IyoN1cNLL2Y5-27" value="&lt;ul&gt;&lt;li&gt;DB Connection string &lt;i&gt;&lt;font style=&quot;font-size: 11px;&quot;&gt;(w/out username / pwd)&lt;/font&gt;&lt;/i&gt;&lt;/li&gt;&lt;li&gt;App DB User name&lt;/li&gt;&lt;li&gt;App DB User Password&lt;/li&gt;&lt;/ul&gt;" style="text;strokeColor=none;fillColor=none;html=1;whiteSpace=wrap;verticalAlign=middle;overflow=hidden;" parent="1" vertex="1">
          <mxGeometry x="438" y="147" width="176" height="73" as="geometry" />
        </mxCell>
      </root>
    </mxGraphModel>
  </diagram>
</mxfile>
